<?xml version="1.0" encoding="UTF-8" standalone="no"?>
<!-- Created with Inkscape (http://www.inkscape.org/) -->

<svg
   xmlns:dc="http://purl.org/dc/elements/1.1/"
   xmlns:cc="http://creativecommons.org/ns#"
   xmlns:rdf="http://www.w3.org/1999/02/22-rdf-syntax-ns#"
   xmlns:svg="http://www.w3.org/2000/svg"
   xmlns="http://www.w3.org/2000/svg"
   xmlns:sodipodi="http://sodipodi.sourceforge.net/DTD/sodipodi-0.dtd"
   xmlns:inkscape="http://www.inkscape.org/namespaces/inkscape"
   width="600"
   height="600"
   id="svg850"
   version="1.1"
   inkscape:version="0.48+devel r12062"
   sodipodi:docname="bubble01.svg">
  <defs
     id="defs852" />
  <sodipodi:namedview
     id="base"
     pagecolor="#ffffff"
     bordercolor="#666666"
     borderopacity="1.0"
     inkscape:pageopacity="0.0"
     inkscape:pageshadow="2"
     inkscape:zoom="0.35"
     inkscape:cx="375"
     inkscape:cy="520"
     inkscape:document-units="px"
     inkscape:current-layer="layer1"
     showgrid="false"
     inkscape:window-width="1920"
     inkscape:window-height="1138"
     inkscape:window-x="-8"
     inkscape:window-y="-8"
     inkscape:window-maximized="1" />
  <metadata
     id="metadata855">
    <rdf:RDF>
      <cc:Work
         rdf:about="">
        <dc:format>image/svg+xml</dc:format>
        <dc:type
           rdf:resource="http://purl.org/dc/dcmitype/StillImage" />
        <dc:title></dc:title>
      </cc:Work>
    </rdf:RDF>
  </metadata>
  <g
     inkscape:label="Layer 1"
     inkscape:groupmode="layer"
     id="layer1"
     transform="translate(0,-452.3622)">
    <path
       style="fill:#b4b9cb"
       d="m 422.34934,805.25145 c -23.81631,-10.11583 16.18866,-27.64375 49.03084,-21.48249 12.95875,2.43107 17.63418,10.54237 10.30268,17.87384 C 475.73606,807.5896 433.85161,810.137 422.34934,805.25145 z m 46.27919,-11.43218 c 0,-4.29741 -12.79352,-5.93598 -26.40672,-3.38211 -18.06711,3.3894 -12.69767,8.66934 7.73266,7.60376 C 460.22521,797.50526 468.62853,795.60549 468.62853,793.81927 z m -94.50814,-32.24262 c -13.3012,-5.79036 -16.16317,-13.99466 -8.52228,-24.43075 10.74918,-14.6815 25.31955,-19.64106 57.56314,-19.59381 16.96384,0.0261 32.63593,1.76032 37.34814,4.13581 16.24702,8.19039 9.64389,31.08518 -11.51512,39.92601 C 434.90604,767.50032 387.67387,767.47681 374.12039,761.57665 z m 58.18325,-12.02744 c 6.07175,-2.02082 19.03108,-5.76375 21.71041,-8.31764 4.31546,-4.11344 4.13016,-5.21118 -1.62382,-9.61785 -7.78326,-5.96077 -52.8602,-4.43243 -67.38904,2.28484 -9.20451,4.25559 -12.04755,14.27845 -4.87151,17.17404 C 387.93538,754.22226 421.35992,753.19158 432.30364,749.54921 z m -72.66153,-38.38486 c -22.34127,-6.75878 -32.28697,-20.34297 -32.28697,-44.09866 l 0,-11.67016 -13.80259,1.78432 c -7.59141,0.98135 -59.83821,6.24705 -116.104,11.70152 -56.26579,5.45451 -112.841097,11.03692 -125.722895,12.40537 l -23.421441,2.48814 -6.47067,-27.79325 C 38.274678,640.69532 33.88702,619.41967 32.0832,608.70239 30.279378,597.98509 23.145703,562.40679 16.230538,529.63952 7.9445386,490.37653 4.8594986,469.68643 7.1826776,468.95934 9.1214996,468.35255 96.933327,466.27849 202.32004,464.35035 307.70675,462.42221 436.57,459.90244 488.68277,458.75086 l 94.75052,-2.09382 1.69922,11.06939 c 0.93458,6.08817 2.43232,49.43241 3.32835,96.32057 l 1.62916,85.25119 -76.15715,0 c -74.48782,0 -76.15713,0.14522 -76.15713,6.62472 0,8.81001 -11.19575,30.37372 -20.30071,39.10047 C 403.8753,708.05815 375.52731,715.96997 359.64211,711.16435 z m 48.46374,-25.26488 c 11.15926,-8.25547 16.57312,-19.70988 17.22918,-36.45278 l 0.53059,-13.5413 72.62166,0.65289 c 39.94189,0.35911 73.40287,-0.12826 74.35769,-1.08319 1.8293,-1.82928 -4.97936,-162.29752 -6.975,-164.38967 -0.6375,-0.66826 -74.65902,0.54211 -164.49232,2.68978 -89.83333,2.14767 -211.98069,5.06257 -271.43857,6.47761 -59.457922,1.41503 -108.871333,3.33885 -109.807609,4.27512 -0.936263,0.93626 4.232971,27.3755 11.487246,58.75382 7.254277,31.37835 13.18958,59.05382 13.18958,61.50107 0,2.44723 2.806304,13.82972 6.236227,25.29435 3.429969,11.46471 7.028765,24.53449 7.997374,29.04406 l 1.761117,8.19924 46.401025,-4.00227 c 50.93818,-4.39364 138.95396,-12.50871 188.61374,-17.39021 46.83443,-4.60379 43.41552,-5.63342 43.14138,12.99277 -0.16725,11.36341 4.9498,27.10896 9.03048,31.20077 C 362.43873,704.61016 391.82406,697.94444 408.10585,685.89947 Z"
       id="path821"
       inkscape:connector-curvature="0"
       sodipodi:nodetypes="sssssssssscssssssssssscssscsssssscsscsssssscsccssssssscsssss" />
  </g>
</svg>
