<?xml version="1.0" encoding="UTF-8" standalone="no"?>
<!-- Created with Inkscape (http://www.inkscape.org/) -->

<svg
   xmlns:dc="http://purl.org/dc/elements/1.1/"
   xmlns:cc="http://creativecommons.org/ns#"
   xmlns:rdf="http://www.w3.org/1999/02/22-rdf-syntax-ns#"
   xmlns:svg="http://www.w3.org/2000/svg"
   xmlns="http://www.w3.org/2000/svg"
   xmlns:sodipodi="http://sodipodi.sourceforge.net/DTD/sodipodi-0.dtd"
   xmlns:inkscape="http://www.inkscape.org/namespaces/inkscape"
   width="744.09448819"
   height="1052.3622047"
   id="svg2"
   version="1.1"
   inkscape:version="0.48+devel r12062"
   sodipodi:docname="hpos.svg">
  <defs
     id="defs4" />
  <sodipodi:namedview
     id="base"
     pagecolor="#ffffff"
     bordercolor="#666666"
     borderopacity="1.0"
     inkscape:pageopacity="0.0"
     inkscape:pageshadow="2"
     inkscape:zoom="1.979899"
     inkscape:cx="154.07603"
     inkscape:cy="873.14227"
     inkscape:document-units="px"
     inkscape:current-layer="layer1"
     showgrid="false"
     inkscape:window-width="1320"
     inkscape:window-height="1014"
     inkscape:window-x="26"
     inkscape:window-y="88"
     inkscape:window-maximized="0" />
  <metadata
     id="metadata7">
    <rdf:RDF>
      <cc:Work
         rdf:about="">
        <dc:format>image/svg+xml</dc:format>
        <dc:type
           rdf:resource="http://purl.org/dc/dcmitype/StillImage" />
        <dc:title></dc:title>
      </cc:Work>
    </rdf:RDF>
  </metadata>
  <g
     inkscape:label="Layer 1"
     inkscape:groupmode="layer"
     id="layer1">
    <g
       id="g4035">
      <path
         inkscape:connector-curvature="0"
         id="path3968"
         d="m 36.571636,36.992226 c 0,0 -4.637983,-16.06505 -17.602652,-7.62571 -14.3714473,9.35509 0.767872,21.80895 15.449079,37.84081 C 56.19633,53.590886 63.16376,33.281256 51.76408,27.291466 41.116964,21.697086 36.571636,36.992226 36.571636,36.992226 Z"
         style="fill:#43517d;stroke:none" />
    </g>
    <g
       id="g4038">
      <path
         style="fill:#dd2a2b;stroke:none"
         d="m 84.048806,55.680048 c 0,0 -4.637983,-16.06505 -17.602652,-7.62571 -14.371447,9.35509 0.767872,21.80895 15.449079,37.84081 C 103.67351,72.278708 110.64094,51.969078 99.24125,45.979288 88.594134,40.384908 84.048806,55.680048 84.048806,55.680048 Z"
         id="path3983"
         inkscape:connector-curvature="0" />
    </g>
    <g
       id="g4041">
      <path
         inkscape:connector-curvature="0"
         id="path3985"
         d="m 30.51072,83.964319 c 0,0 -4.637983,-16.06505 -17.602651,-7.62571 -14.3714473,9.35509 0.767871,21.80895 15.449078,37.840811 C 50.135414,100.56298 57.102844,80.253349 45.703164,74.263559 35.056048,68.669179 30.51072,83.964319 30.51072,83.964319 Z"
         style="fill:#dd2a2b;stroke:none" />
    </g>
    <g
       id="g4044">
      <path
         style="fill:#3e8213;stroke:none"
         d="m 79.503119,102.14707 c 0,0 -4.637983,-16.065055 -17.602652,-7.625715 C 47.52902,103.87645 62.668339,116.33031 77.349546,132.36217 99.127813,118.74573 106.09524,98.436095 94.695563,92.446305 84.048447,86.851925 79.503119,102.14707 79.503119,102.14707 Z"
         id="path3987"
         inkscape:connector-curvature="0" />
    </g>
    <g
       id="g4047">
      <path
         inkscape:connector-curvature="0"
         id="path3989"
         d="m 122.93968,136.49225 c 0,0 -4.63798,-16.06505 -17.60265,-7.62571 -14.371451,9.35509 0.76787,21.80895 15.44908,37.84082 21.77826,-13.61645 28.74569,-33.92608 17.34601,-39.91587 C 127.48501,121.19711 122.93968,136.49225 122.93968,136.49225 Z"
         style="fill:#3e8213;stroke:none" />
    </g>
    <g
       id="g4050">
      <path
         style="fill:#3e8213;stroke:none"
         d="m 130.51582,69.317104 c 0,0 -4.63798,-16.06505 -17.60265,-7.62571 -14.371447,9.35509 0.76787,21.80895 15.44908,37.84082 21.77826,-13.61645 28.74569,-33.92608 17.34601,-39.91587 C 135.06115,54.021964 130.51582,69.317104 130.51582,69.317104 Z"
         id="path3991"
         inkscape:connector-curvature="0" />
    </g>
    <g
       id="g4053">
      <path
         inkscape:connector-curvature="0"
         id="path3993"
         d="m 43.137625,141.03794 c 0,0 -4.63798,-16.06505 -17.60265,-7.62571 -14.371447,9.35509 0.76787,21.80895 15.44908,37.84082 21.77826,-13.61645 28.74569,-33.92608 17.34601,-39.91587 C 47.682955,125.7428 43.137625,141.03794 43.137625,141.03794 Z"
         style="fill:#3e8213;stroke:none" />
    </g>
    <g
       id="g4056">
      <path
         style="fill:#7382b3;stroke:none"
         d="m 163.85086,103.66229 c 0,0 -4.63798,-16.065046 -17.60265,-7.625706 -14.37145,9.355086 0.76787,21.808946 15.44908,37.840826 C 183.47555,120.26096 190.44298,99.951324 179.0433,93.961534 168.39619,88.367154 163.85086,103.66229 163.85086,103.66229 Z"
         id="path3995"
         inkscape:connector-curvature="0" />
    </g>
    <g
       id="g4059">
      <path
         inkscape:connector-curvature="0"
         id="path3997"
         d="m 87.58434,166.29175 c 0,0 -4.63798,-16.06505 -17.60265,-7.62571 -14.37145,9.35509 0.76787,21.80895 15.44908,37.84083 21.77826,-13.61645 28.74569,-33.92609 17.34601,-39.91588 C 92.12967,150.99661 87.58434,166.29175 87.58434,166.29175 Z"
         style="fill:#3e8213;stroke:none" />
    </g>
    <g
       id="g4062">
      <path
         style="fill:#3e8213;stroke:none"
         d="m 182.0336,164.77652 c 0,0 -4.63798,-16.06505 -17.60265,-7.62571 -14.37145,9.35509 0.76787,21.80895 15.44908,37.84083 21.77826,-13.61645 28.74569,-33.92609 17.34601,-39.91588 C 186.57893,149.48138 182.0336,164.77652 182.0336,164.77652 Z"
         id="path3999"
         inkscape:connector-curvature="0" />
    </g>
    <g
       id="g4065">
      <path
         inkscape:connector-curvature="0"
         id="path4001"
         d="m 214.86356,113.76381 c 0,0 -4.63798,-16.065046 -17.60265,-7.62571 -14.37145,9.35509 0.76787,21.80895 15.44908,37.84083 21.77826,-13.61645 28.74569,-33.92609 17.34601,-39.91588 C 219.40889,98.468674 214.86356,113.76381 214.86356,113.76381 Z"
         style="fill:#3e8213;stroke:none" />
    </g>
    <g
       id="g4068">
      <path
         style="fill:#3e8213;stroke:none"
         d="m 182.0336,164.77652 c 0,0 -4.63798,-16.06505 -17.60265,-7.62571 -14.37145,9.35509 0.76787,21.80895 15.44908,37.84083 21.77826,-13.61645 28.74569,-33.92609 17.34601,-39.91588 C 186.57893,149.48138 182.0336,164.77652 182.0336,164.77652 Z"
         id="path4003"
         inkscape:connector-curvature="0" />
    </g>
    <g
       id="g4071">
      <path
         style="fill:#3e8213;stroke:none"
         d="m 181.52853,45.073441 c 0,0 -4.63798,-16.06505 -17.60265,-7.62571 -14.37145,9.355087 0.76787,21.808947 15.44908,37.840827 21.77826,-13.61645 28.74569,-33.926087 17.34601,-39.915877 C 186.07386,29.778301 181.52853,45.073441 181.52853,45.073441 Z"
         id="path4005"
         inkscape:connector-curvature="0" />
    </g>
    <g
       id="g4074">
      <path
         inkscape:connector-curvature="0"
         id="path4007"
         d="m 226.9854,64.771416 c 0,0 -4.63798,-16.06505 -17.60265,-7.62571 -14.37145,9.355087 0.76787,21.808947 15.44908,37.840835 C 246.61009,81.370083 253.57752,61.060446 242.17784,55.070656 231.53073,49.476276 226.9854,64.771416 226.9854,64.771416 Z"
         style="fill:#3e8213;stroke:none" />
    </g>
    <g
       id="g4077">
      <path
         style="fill:#3e8213;stroke:none"
         d="m 263.85596,125.88564 c 0,0 -4.63798,-16.06504 -17.60265,-7.62571 -14.37145,9.35509 0.76787,21.80895 15.44908,37.84083 21.77826,-13.61645 28.74569,-33.92609 17.34601,-39.91588 C 268.40129,110.59051 263.85596,125.88564 263.85596,125.88564 Z"
         id="path4009"
         inkscape:connector-curvature="0" />
    </g>
    <g
       id="g4080">
      <path
         inkscape:connector-curvature="0"
         id="path4011"
         d="m 237.08692,173.86789 c 0,0 -4.63798,-16.06505 -17.60265,-7.62571 -14.37145,9.35509 0.76787,21.80895 15.44908,37.84083 21.77826,-13.61645 28.74569,-33.92609 17.34601,-39.91588 C 241.63225,158.57275 237.08692,173.86789 237.08692,173.86789 Z"
         style="fill:#3e8213;stroke:none" />
    </g>
    <g
       id="g4083">
      <path
         style="fill:#3e8213;stroke:none"
         d="m 138.09197,194.57602 c 0,0 -4.63798,-16.06505 -17.60265,-7.62571 -14.37145,9.35509 0.76787,21.80895 15.44908,37.84083 21.77826,-13.61645 28.74569,-33.92609 17.34601,-39.91588 C 142.6373,179.28088 138.09197,194.57602 138.09197,194.57602 Z"
         id="path4013"
         inkscape:connector-curvature="0" />
    </g>
    <g
       id="g4086">
      <path
         inkscape:connector-curvature="0"
         id="path4015"
         d="m 237.08692,173.86789 c 0,0 -4.63798,-16.06505 -17.60265,-7.62571 -14.37145,9.35509 0.76787,21.80895 15.44908,37.84083 21.77826,-13.61645 28.74569,-33.92609 17.34601,-39.91588 C 241.63225,158.57275 237.08692,173.86789 237.08692,173.86789 Z"
         style="fill:#3e8213;stroke:none" />
    </g>
    <g
       id="g4089">
      <path
         inkscape:connector-curvature="0"
         id="path4017"
         d="m 237.08692,173.86789 c 0,0 -4.63798,-16.06505 -17.60265,-7.62571 -14.37145,9.35509 0.76787,21.80895 15.44908,37.84083 21.77826,-13.61645 28.74569,-33.92609 17.34601,-39.91588 C 241.63225,158.57275 237.08692,173.86789 237.08692,173.86789 Z"
         style="fill:#3e8213;stroke:none" />
    </g>
    <g
       id="g4092">
      <path
         style="fill:#3e8213;stroke:none"
         d="m 237.08692,173.86789 c 0,0 -4.63798,-16.06505 -17.60265,-7.62571 -14.37145,9.35509 0.76787,21.80895 15.44908,37.84083 21.77826,-13.61645 28.74569,-33.92609 17.34601,-39.91588 C 241.63225,158.57275 237.08692,173.86789 237.08692,173.86789 Z"
         id="path4019"
         inkscape:connector-curvature="0" />
    </g>
    <g
       id="g4095">
      <path
         inkscape:connector-curvature="0"
         id="path4023"
         d="m 138.09197,194.57602 c 0,0 -4.63798,-16.06505 -17.60265,-7.62571 -14.37145,9.35509 0.76787,21.80895 15.44908,37.84083 21.77826,-13.61645 28.74569,-33.92609 17.34601,-39.91588 C 142.6373,179.28088 138.09197,194.57602 138.09197,194.57602 Z"
         style="fill:#3e8213;stroke:none" />
    </g>
    <g
       id="g4098">
      <path
         inkscape:connector-curvature="0"
         id="path4025"
         d="m 131.52598,24.870396 c 0,0 -4.63799,-16.0650506 -17.60266,-7.62571 -14.371443,9.35509 0.76788,21.808949 15.44908,37.840809 21.77827,-13.61644 28.7457,-33.926069 17.34602,-39.915859 C 136.0713,9.5752555 131.52598,24.870396 131.52598,24.870396 Z"
         style="fill:#dd2a2b;stroke:none" />
    </g>
    <g
       id="g4101">
      <path
         style="fill:#43517d;stroke:none"
         d="m 192.13513,210.23339 c 0,0 -4.63798,-16.06505 -17.60265,-7.62571 -14.37145,9.35509 0.76787,21.80895 15.44908,37.84081 21.77826,-13.61644 28.74569,-33.92607 17.34601,-39.91586 C 196.68046,194.93825 192.13513,210.23339 192.13513,210.23339 Z"
         id="path4027"
         inkscape:connector-curvature="0" />
    </g>
    <g
       id="g4104">
      <path
         inkscape:connector-curvature="0"
         id="path4029"
         d="m 291.13008,171.34252 c 0,0 -4.63798,-16.06505 -17.60265,-7.62571 -14.37145,9.35509 0.76787,21.80895 15.44908,37.84081 21.77826,-13.61644 28.74569,-33.92607 17.34601,-39.91586 C 295.67541,156.04738 291.13008,171.34252 291.13008,171.34252 Z"
         style="fill:#43517d;stroke:none" />
    </g>
    <g
       id="g4107">
      <path
         style="fill:#43517d;stroke:none"
         d="m 85.564037,210.23339 c 0,0 -4.63798,-16.06505 -17.60265,-7.62571 -14.37145,9.35509 0.76787,21.80895 15.44908,37.84081 C 105.18873,226.83205 112.15616,206.52242 100.75648,200.53263 90.109367,194.93825 85.564037,210.23339 85.564037,210.23339 Z"
         id="path4031"
         inkscape:connector-curvature="0" />
    </g>
    <g
       id="g4110">
      <path
         style="fill:#43517d;stroke:none"
         d="m 273.45241,80.428791 c 0,0 -4.63798,-16.06505 -17.60265,-7.62571 -14.37145,9.35509 0.76787,21.80895 15.44908,37.840809 C 293.0771,97.027451 300.04453,76.717821 288.64485,70.728031 277.99774,65.133651 273.45241,80.428791 273.45241,80.428791 Z"
         id="path4033"
         inkscape:connector-curvature="0" />
    </g>
  </g>
</svg>
