<?xml version="1.0" encoding="utf-8"?>
<!-- Generator: Adobe Illustrator 16.0.0, SVG Export Plug-In . SVG Version: 6.00 Build 0)  -->
<!DOCTYPE svg PUBLIC "-//W3C//DTD SVG 1.1//EN" "http://www.w3.org/Graphics/SVG/1.1/DTD/svg11.dtd">
<svg version="1.1" id="Layer_1" xmlns="http://www.w3.org/2000/svg" xmlns:xlink="http://www.w3.org/1999/xlink" x="0px" y="0px"
	 width="303.408px" height="380.816px" viewBox="0 0 303.408 380.816" enable-background="new 0 0 303.408 380.816"
	 xml:space="preserve">
<path fill="#BE6128" d="M4.317,24.065c-2.573,8.574,9.432,334.607,9.432,334.607h13.472c0,0,0-5.145,0-40.3
	c0-28.708-1.291-192.948,12.9-200.8l9.34,200.556h14.41l3.662-201.723c19.954-3.621,46.749,7.983,77.028,7.983
	c37.837,0,67.364-14.257,87.212-18.785l9.082,210.477h12.122l-2.31-215.478h-0.001c5.446-1.673,10.03-1.444,10.03-1.444
	l27.379,255.914l7.262,0.02c0,0,23.657-312.164-31.218-335.314c-54.876-23.151-196.352,0-196.352,0L4.317,24.065z"/>
</svg>
