<?xml version="1.0" encoding="utf-8"?>
<!-- Generator: Adobe Illustrator 16.0.0, SVG Export Plug-In . SVG Version: 6.00 Build 0)  -->
<!DOCTYPE svg PUBLIC "-//W3C//DTD SVG 1.1//EN" "http://www.w3.org/Graphics/SVG/1.1/DTD/svg11.dtd">
<svg version="1.1" id="Layer_1" xmlns="http://www.w3.org/2000/svg" xmlns:xlink="http://www.w3.org/1999/xlink" x="0px" y="0px"
	 width="378px" height="486px" viewBox="0 0 378 486" enable-background="new 0 0 378 486" xml:space="preserve">
<g>
	<path fill="#B9AE92" d="M341.856,177.364c-2.111,0-4.168,0.283-6.147,0.805C317.375,82.711,260.061,13.06,192.182,13.06
		c-68.36,0-126.014,70.64-143.919,167.144c-3.48-1.819-7.33-2.839-11.382-2.839c-15.538,0-28.134,14.863-28.134,33.198
		s12.596,33.198,28.134,33.198c1.929,0,3.812-0.229,5.633-0.667c0,0.224-0.006,0.444-0.006,0.667
		c0,127.413,67.012,230.702,149.675,230.702c82.664,0,149.674-103.289,149.674-230.702c15.538,0,28.135-14.863,28.135-33.198
		S357.395,177.364,341.856,177.364z"/>
	<circle fill="#4E3117" cx="133.663" cy="191.994" r="14.63"/>
	<circle fill="#4E3117" cx="252.926" cy="191.994" r="14.63"/>
	<path fill="#4E3117" d="M151.668,323.663c0,0,9.003,33.198,33.199,33.198c24.195,0,42.201-33.198,42.201-33.198"/>
	<path fill="none" stroke="#4E3117" stroke-width="2.5659" stroke-linecap="round" stroke-miterlimit="10" d="M144.691,252.216
		h19.357c0,0,7.697,38.264,23.453,38.264s23.88-38.264,23.88-38.264h18.928"/>
</g>
</svg>
