<?xml version="1.0" encoding="utf-8"?>
<!-- Generator: Adobe Illustrator 16.0.0, SVG Export Plug-In . SVG Version: 6.00 Build 0)  -->
<!DOCTYPE svg PUBLIC "-//W3C//DTD SVG 1.1//EN" "http://www.w3.org/Graphics/SVG/1.1/DTD/svg11.dtd">
<svg version="1.1" id="Layer_1" xmlns="http://www.w3.org/2000/svg" xmlns:xlink="http://www.w3.org/1999/xlink" x="0px" y="0px"
	 width="110.229px" height="110.973px" viewBox="0 0 110.229 110.973" enable-background="new 0 0 110.229 110.973"
	 xml:space="preserve">
<path fill="#BE6128" d="M105.025,82.103c0,0,7.738-18.129-0.836-30.134C95.615,39.965,83.85,38.23,83.85,38.23l-5.593-16.312
	c2.553-1.659,4.245-4.531,4.245-7.803c0-5.14-4.166-9.306-9.306-9.306s-9.306,4.166-9.306,9.306c0,4.084,2.635,7.545,6.295,8.798
	l3.994,14.479l-13.719,2.572l-4.516-18.063c2.538-1.662,4.218-4.526,4.218-7.786c0-5.14-4.167-9.306-9.306-9.306
	c-5.14,0-9.306,4.166-9.306,9.306c0,4.464,3.146,8.19,7.339,9.093l4.711,20.186c0,0-33.44,32.583-44.587,35.155
	S7.3,105.987,19.304,108.56c12.005,2.572,11.147-7.717,11.147-7.717l44.586-15.434c0,0-3.188-3.846,0.168,2.98L105.025,82.103z"/>
</svg>
